<svg height='100px' width='100px'  fill="#000000" xmlns="http://www.w3.org/2000/svg" data-name="Layer 2" viewBox="0 0 96 96" x="0px" y="0px"><title>Job resume business secretary woman worker</title><path d="M68,51.29s0,0,0-.07l3-25a.37.37,0,0,0,0-.11,23,23,0,0,0-46,0v.11l3,25.64a16.89,16.89,0,0,0-9.06,15V92.3a1,1,0,0,0,1,1H77.23a1,1,0,0,0,1-1V66.88A16.89,16.89,0,0,0,68,51.29ZM76.23,86H69.06V84h7.17Zm-7.17,5.21V88h7.17v3.21ZM48,5.11A21,21,0,0,1,69,26.05l0,.18A4.74,4.74,0,0,0,65.3,24a1.46,1.46,0,0,0-.22,0v-.61a1,1,0,0,0,.92-1A15.5,15.5,0,0,0,61,11a1,1,0,0,0-1.36,1.48A13.4,13.4,0,0,1,64,21.39H43.4l-.81-4.8a1,1,0,0,0-1-.84,1,1,0,0,0-1,.84l-.8,4.8H32a13.29,13.29,0,0,1,3.9-8.47l.42-.41A1,1,0,1,0,35,11.05l-.48.45A15.3,15.3,0,0,0,30,22.39a1,1,0,0,0,1,1h.05V24a4.74,4.74,0,0,0-4,2.51l0-.41A21,21,0,0,1,48,5.11ZM63,32.44c-.05.45-.12.9-.21,1.33l0,.13c-.09.43-.2.85-.32,1.27a.56.56,0,0,0,0,.12A15.06,15.06,0,0,1,55.25,44l-.09.05c-.38.2-.76.38-1.15.55l-.17.08a15.07,15.07,0,0,1-2.65.82l-.3.06c-.35.06-.71.12-1.07.16l-.37,0c-.46,0-.92.07-1.38.07a15,15,0,0,1-15-15v-7.4h7.62a.94.94,0,0,0,.3-.05.41.41,0,0,0,.15-.07l.12-.06a.82.82,0,0,0,.19-.18l0,0a1.17,1.17,0,0,0,.15-.27s0,0,0,0a.72.72,0,0,0,.14.24.76.76,0,0,0,.09.09.57.57,0,0,0,.15.12l.13.07a.76.76,0,0,0,.16.06l.15,0H63.08v7.4c0,.47,0,.93-.07,1.38C63,32.26,63,32.35,63,32.44ZM31.05,30.8v2.3a2.74,2.74,0,0,1-2.58-2.74V28.68a2.74,2.74,0,0,1,2.58-2.74Zm34,0V25.94h.08a2.73,2.73,0,0,1,2.51,2.73v1.7a2.75,2.75,0,0,1-2.59,2.74ZM35.45,52h2a1,1,0,0,0,0-2h-2a16.08,16.08,0,0,0-5.57,1l-2-17.28a4.73,4.73,0,0,0,3.32,1.37,1.75,1.75,0,0,0,.4,0A17,17,0,0,0,48.07,47.8c.52,0,1,0,1.56-.08l.43,0q.6-.06,1.2-.18l.35-.06a17.16,17.16,0,0,0,3-.93l.22-.1c.43-.19.85-.39,1.26-.61l.15-.08c.48-.26.94-.53,1.39-.83l0-.05a17.09,17.09,0,0,0,5.15-5.58,1.34,1.34,0,0,0,.11-.14,18.49,18.49,0,0,0,.81-1.68l0,0c.2-.49.38-1,.54-1.49l.06-.18c.06-.21.13-.42.19-.64a1.61,1.61,0,0,0,.39,0,4.68,4.68,0,0,0,3.12-1.2l-2,16.71A16.18,16.18,0,0,0,61.68,50h-3a1,1,0,0,0,0,2h3A14.72,14.72,0,0,1,76.23,66.88V82H69.06V64.69a1,1,0,0,0-2,0V91.3h-37V64.69a1,1,0,0,0-2,0V82H20.9V66.88A14.72,14.72,0,0,1,35.45,52ZM20.9,84h7.17v2H20.9Zm7.17,4v3.21H20.9V88Z"></path><path d="M43.05,60.24a7.13,7.13,0,0,0,2.28-.38L42,65.69a1,1,0,1,0,1.73,1l4.56-7.89,4.55,7.89a1,1,0,0,0,.87.5,1,1,0,0,0,.5-.14,1,1,0,0,0,.36-1.36L51.26,60a7.25,7.25,0,0,0,1.76.23c3.31,0,6-2.24,6-5a4.64,4.64,0,0,0-2.09-3.78h0l0,0a1,1,0,0,0-.3-.13l0,0h0a1.3,1.3,0,0,0-.34,0h-.05l-.16,0-.14.07,0,0a1.1,1.1,0,0,0-.25.23l0,0a1,1,0,0,0-.15.33c0,.1-.06.19-.1.29-.64,1.43-3.35,2.83-7.21,2.85h-.12c-4,0-6.84-1.64-7.2-3.17a.92.92,0,0,0-.14-.32.21.21,0,0,1,0-.06,1.09,1.09,0,0,0-.25-.23l0,0-.15-.07a.64.64,0,0,0-.17-.05h0a.82.82,0,0,0-.35,0s0,0,0,0h0a.87.87,0,0,0-.31.14h0A4.7,4.7,0,0,0,37,55.24C37,58,39.73,60.24,43.05,60.24Zm-4-5a2.41,2.41,0,0,1,.45-1.37l0,0a5.08,5.08,0,0,0,.44.5l.15.15a5.2,5.2,0,0,0,.43.37l.15.13c.2.15.42.29.64.43l.16.09.58.31.25.12.64.26.19.08c.27.1.55.18.85.27l.29.07c.22.06.43.11.66.15l.33.07.92.14h.06a4.61,4.61,0,0,1-3.19,1.19C40.83,58.24,39,56.9,39,55.24Zm14,3a4.61,4.61,0,0,1-3.18-1.18h0c.33,0,.66-.08,1-.14l.29-.06.7-.16.26-.06q.45-.12.87-.27l.17-.07q.33-.12.66-.27l.24-.11.6-.31.14-.08c.23-.14.45-.29.65-.44l.15-.12a5.37,5.37,0,0,0,.44-.37l.15-.15a5.08,5.08,0,0,0,.44-.5l0,0A2.32,2.32,0,0,1,57,55.24C57,56.9,55.23,58.24,53,58.24Z"></path></svg>